<?xml version="1.0" encoding="UTF-8" standalone="no"?>
<svg
   id="_Слой_1"
   data-name="Слой 1"
   viewBox="0 0 428.28999 428.29003"
   version="1.1"
   sodipodi:docname="share-chain.svg"
   width="428.29001"
   height="428.29001"
   inkscape:version="1.3 (0e150ed6c4, 2023-07-21)"
   xmlns:inkscape="http://www.inkscape.org/namespaces/inkscape"
   xmlns:sodipodi="http://sodipodi.sourceforge.net/DTD/sodipodi-0.dtd"
   xmlns="http://www.w3.org/2000/svg"
   xmlns:svg="http://www.w3.org/2000/svg">
  <sodipodi:namedview
     id="namedview6"
     pagecolor="#505050"
     bordercolor="#ffffff"
     borderopacity="1"
     inkscape:showpageshadow="0"
     inkscape:pageopacity="0"
     inkscape:pagecheckerboard="1"
     inkscape:deskcolor="#d1d1d1"
     inkscape:export-bgcolor="#ffffffff"
     inkscape:zoom="0.90509668"
     inkscape:cx="211.57961"
     inkscape:cy="133.68738"
     inkscape:window-width="1920"
     inkscape:window-height="991"
     inkscape:window-x="-9"
     inkscape:window-y="-9"
     inkscape:window-maximized="1"
     inkscape:current-layer="_Слой_1" />
  <defs
     id="defs1">
    <style
       id="style1">&#10;      .cls-1 {&#10;        fill: #1c1c1b;&#10;      }&#10;&#10;      .cls-1, .cls-2 {&#10;        stroke-width: 0px;&#10;      }&#10;&#10;      .cls-2 {&#10;        fill: #fff;&#10;      }&#10;    </style>
  </defs>
  <g
     id="g1"
     transform="matrix(2.0014029,0,0,2.0014029,-466.13935,-45.086692)"
     style="stroke-width:0.49965">
    <path
       d="m 430.41,82.77 c -0.18,-3.68 -0.78,-7.34 -1.84,-10.9 -1.05,-3.57 -2.55,-7.02 -4.48,-10.29 -1.93,-3.28 -4.3,-6.36 -7.12,-9.17 -2.25,-2.25 -4.67,-4.21 -7.22,-5.9 -1.28,-0.84 -2.59,-1.62 -3.92,-2.32 -6.69,-3.51 -14.05,-5.27 -21.41,-5.27 -7.36,0 -14.74,1.76 -21.43,5.27 -1.33,0.7 -2.65,1.48 -3.92,2.32 -1.63,1.07 -3.18,2.26 -4.68,3.56 -0.56,0.48 -1.12,0.98 -1.66,1.5 -0.29,0.28 -0.6,0.55 -0.88,0.84 l -25.93,25.92 c 2.61,-0.35 5.26,-0.55 7.93,-0.55 3.38,0 6.73,0.32 10,0.88 l 17.13,-17.13 c 1.57,-1.56 3.27,-2.95 5.06,-4.16 0.9,-0.6 1.83,-1.16 2.77,-1.66 1.9,-1.02 3.9,-1.84 5.96,-2.47 3.09,-0.94 6.33,-1.42 9.66,-1.42 3.33,0 6.56,0.48 9.65,1.42 0.67,0.2 1.31,0.43 1.96,0.67 1.87,0.7 3.69,1.57 5.41,2.6 0.74,0.44 1.45,0.91 2.14,1.42 0.54,0.37 1.05,0.76 1.56,1.17 0.95,0.76 1.86,1.57 2.73,2.44 1.33,1.33 2.53,2.76 3.58,4.25 0.54,0.77 1.05,1.55 1.53,2.34 0.27,0.48 0.54,0.95 0.8,1.43 1.01,1.93 1.81,3.93 2.42,5.98 0.3,1.03 0.55,2.06 0.75,3.11 0.21,1.04 0.36,2.1 0.46,3.15 0.11,1.05 0.15,2.12 0.15,3.18 0,6.37 -1.81,12.74 -5.46,18.24 -1.21,1.84 -2.62,3.58 -4.24,5.2 l -17.13,17.13 -10.85,10.85 -10.47,10.47 c -2.07,2.07 -4.38,3.84 -6.86,5.27 q 0,0 -0.01,0.01 c -0.32,0.19 -0.63,0.37 -0.96,0.55 -0.48,0.25 -0.96,0.49 -1.44,0.73 -1.46,0.69 -2.96,1.26 -4.51,1.73 -1.03,0.32 -2.08,0.57 -3.15,0.78 -0.53,0.11 -1.07,0.2 -1.59,0.28 -1.08,0.15 -2.17,0.27 -3.27,0.32 -0.55,0.02 -1.1,0.05 -1.65,0.05 -1.42,0 -2.82,-0.11 -4.2,-0.28 -2.94,-0.36 -5.8,-1.11 -8.5,-2.24 -1.21,-0.49 -2.38,-1.08 -3.52,-1.72 -2.61,-1.48 -5.05,-3.3 -7.22,-5.48 -1.17,-1.17 -2.25,-2.42 -3.22,-3.73 -0.64,-0.87 -1.25,-1.77 -1.8,-2.69 -0.56,-0.92 -1.07,-1.87 -1.52,-2.85 -1.49,-3.13 -2.45,-6.49 -2.89,-9.95 l -10.7,10.7 c 1.1,3.22 2.56,6.35 4.4,9.31 1.84,2.97 4.04,5.77 6.61,8.35 3.37,3.37 7.13,6.11 11.15,8.22 2.11,1.1 4.3,2.04 6.52,2.79 2,0.69 4.04,1.24 6.1,1.64 2.9,0.56 5.85,0.84 8.8,0.84 0.28,0 0.56,-0.01 0.84,-0.02 h 0.01 c 2.53,-0.05 5.07,-0.29 7.57,-0.76 0.28,-0.05 0.56,-0.11 0.84,-0.16 3.95,-0.81 7.81,-2.14 11.47,-3.99 0.9,-0.46 1.78,-0.92 2.66,-1.44 0.85,-0.5 1.7,-1.05 2.53,-1.62 0.43,-0.3 0.87,-0.6 1.3,-0.91 1.24,-0.91 2.45,-1.9 3.62,-2.95 0.59,-0.53 1.16,-1.07 1.72,-1.63 l 12.52,-12.53 25.92,-25.92 c 0.56,-0.56 1.11,-1.14 1.64,-1.72 1.05,-1.17 2.04,-2.38 2.95,-3.62 0.91,-1.24 1.76,-2.52 2.53,-3.83 0.77,-1.31 1.48,-2.65 2.11,-4.02 1.26,-2.72 2.25,-5.55 2.95,-8.43 0.53,-2.15 0.9,-4.34 1.11,-6.54 0.14,-1.48 0.21,-2.94 0.21,-4.41 0,-0.74 -0.02,-1.48 -0.06,-2.21 z"
       id="path4"
       style="stroke-width:0.49965" />
    <path
       d="m 335.97,180.32 -17.13,17.13 c -3.13,3.13 -6.78,5.56 -10.75,7.2 -1,0.41 -2,0.77 -3.03,1.08 -3.09,0.95 -6.35,1.43 -9.66,1.43 h -0.01 c -4.43,0 -8.72,-0.87 -12.69,-2.51 -3.98,-1.64 -7.62,-4.07 -10.75,-7.2 -0.21,-0.21 -0.43,-0.43 -0.62,-0.64 -0.04,-0.04 -0.07,-0.06 -0.09,-0.09 -0.05,-0.05 -0.08,-0.08 -0.12,-0.13 h -0.01 c -0.13,-0.15 -0.27,-0.29 -0.4,-0.44 -0.07,-0.07 -0.13,-0.14 -0.2,-0.22 -0.06,-0.07 -0.13,-0.14 -0.19,-0.22 h -0.01 c -0.05,-0.06 -0.09,-0.12 -0.14,-0.18 l -0.02,-0.02 c 0,0 -0.02,-0.02 -0.02,-0.02 -0.19,-0.23 -0.37,-0.46 -0.56,-0.69 -0.26,-0.3 -0.49,-0.61 -0.73,-0.92 -0.04,-0.05 -0.08,-0.11 -0.12,-0.15 -0.19,-0.26 -0.37,-0.53 -0.56,-0.8 -0.14,-0.2 -0.28,-0.4 -0.41,-0.6 -0.11,-0.14 -0.19,-0.29 -0.29,-0.44 -0.2,-0.33 -0.41,-0.66 -0.61,-1 -0.02,-0.04 -0.05,-0.07 -0.07,-0.12 -0.19,-0.32 -0.36,-0.64 -0.54,-0.96 h -0.01 c -0.16,-0.33 -0.33,-0.64 -0.49,-0.96 -0.11,-0.21 -0.21,-0.42 -0.3,-0.64 -0.22,-0.47 -0.43,-0.94 -0.63,-1.4 -0.2,-0.47 -0.39,-0.94 -0.55,-1.42 -0.08,-0.21 -0.15,-0.43 -0.23,-0.64 -0.01,-0.02 -0.01,-0.05 -0.01,-0.06 -0.12,-0.33 -0.21,-0.66 -0.32,-0.98 -0.02,-0.08 -0.05,-0.18 -0.08,-0.27 -0.01,-0.01 -0.02,-0.04 -0.01,-0.05 -0.02,-0.02 -0.02,-0.06 -0.04,-0.08 -0.02,-0.09 -0.05,-0.18 -0.06,-0.27 -0.04,-0.09 -0.06,-0.2 -0.08,-0.29 -0.02,-0.06 -0.04,-0.12 -0.06,-0.18 -0.05,-0.15 -0.08,-0.3 -0.12,-0.46 -0.02,-0.07 -0.04,-0.15 -0.05,-0.22 -0.02,-0.11 -0.05,-0.2 -0.07,-0.3 -0.04,-0.11 -0.06,-0.21 -0.08,-0.3 -0.05,-0.21 -0.09,-0.43 -0.14,-0.64 0,-0.04 -0.01,-0.08 -0.01,-0.12 -0.06,-0.26 -0.11,-0.54 -0.15,-0.81 -0.06,-0.27 -0.09,-0.54 -0.13,-0.81 -0.02,-0.07 -0.02,-0.15 -0.04,-0.23 -0.06,-0.34 -0.09,-0.68 -0.13,-1.03 -0.04,-0.29 -0.06,-0.57 -0.08,-0.87 v 0 c 0,0 -0.01,-0.04 -0.01,-0.04 h 0.01 c -0.01,-0.14 -0.02,-0.26 -0.02,-0.39 -0.01,-0.12 -0.02,-0.22 -0.02,-0.34 -0.01,-0.05 -0.01,-0.09 -0.01,-0.14 -0.01,-0.16 -0.02,-0.34 -0.02,-0.5 -0.02,-0.44 -0.04,-0.9 -0.04,-1.35 0,-0.36 0.01,-0.73 0.04,-1.09 v -0.07 c -0.01,-0.18 0,-0.35 0.01,-0.52 0,-0.15 0.01,-0.29 0.04,-0.43 0,-0.05 0,-0.11 0,-0.17 0.02,-0.35 0.04,-0.71 0.07,-1.06 0.07,-0.74 0.18,-1.46 0.29,-2.19 0.06,-0.33 0.12,-0.64 0.19,-0.96 v -0.02 c 0.07,-0.34 0.14,-0.67 0.21,-1.01 0.08,-0.36 0.18,-0.74 0.28,-1.1 0.09,-0.34 0.19,-0.68 0.29,-1.03 0,0 -0.01,0 0,-0.01 0.01,-0.04 0.02,-0.08 0.04,-0.13 0.05,-0.16 0.11,-0.33 0.18,-0.5 v 0 c 0,0 0.01,-0.06 0.02,-0.08 0.02,-0.12 0.07,-0.23 0.11,-0.35 0.06,-0.13 0.09,-0.26 0.14,-0.37 0.12,-0.34 0.23,-0.69 0.37,-1.03 0.04,-0.09 0.08,-0.19 0.12,-0.29 0.01,-0.04 0.04,-0.08 0.06,-0.12 0.01,-0.05 0.04,-0.08 0.05,-0.13 0.16,-0.37 0.32,-0.75 0.49,-1.12 0.12,-0.27 0.25,-0.54 0.37,-0.8 0.04,-0.07 0.07,-0.14 0.11,-0.21 0,-0.01 0.01,-0.02 0.01,-0.02 v 0 c 0.16,-0.34 0.33,-0.66 0.5,-0.97 v 0 c 0.18,-0.33 0.35,-0.64 0.54,-0.96 0.02,-0.04 0.05,-0.07 0.07,-0.12 0.2,-0.33 0.41,-0.66 0.62,-0.98 0.09,-0.15 0.18,-0.3 0.28,-0.46 0.13,-0.2 0.28,-0.4 0.42,-0.6 0.18,-0.26 0.36,-0.53 0.55,-0.78 0.04,-0.06 0.08,-0.11 0.13,-0.16 0.23,-0.32 0.48,-0.62 0.73,-0.92 0.25,-0.3 0.49,-0.61 0.75,-0.91 h 0.01 c 0.08,-0.09 0.16,-0.2 0.26,-0.29 0.01,-0.02 0.02,-0.04 0.05,-0.06 0.04,-0.04 0.07,-0.08 0.11,-0.12 0.02,-0.04 0.06,-0.06 0.08,-0.09 0.09,-0.11 0.19,-0.21 0.29,-0.32 0.04,-0.05 0.08,-0.09 0.13,-0.14 0.22,-0.25 0.46,-0.48 0.7,-0.73 l 17.12,-17.12 v 0 c 0,0 10.85,-10.85 10.85,-10.85 v 0 c 0,0 10.47,-10.48 10.47,-10.48 h 0.01 c 0.15,-0.16 0.3,-0.32 0.47,-0.46 0.07,-0.08 0.15,-0.15 0.23,-0.22 l 0.46,-0.42 c 0,0 0.01,-0.01 0.02,-0.02 0,0 0,-0.01 0.01,-0.01 q 0,0 0.01,-0.01 c 0,0 0.02,-0.02 0.04,-0.02 0.39,-0.36 0.78,-0.7 1.18,-1.03 0.28,-0.23 0.56,-0.46 0.85,-0.68 0.04,-0.02 0.07,-0.05 0.11,-0.08 0.02,-0.02 0.06,-0.04 0.08,-0.06 0.15,-0.11 0.29,-0.22 0.46,-0.34 0.04,-0.02 0.07,-0.06 0.11,-0.08 0.04,-0.02 0.07,-0.05 0.12,-0.08 0.29,-0.21 0.59,-0.41 0.88,-0.61 0.6,-0.4 1.21,-0.78 1.83,-1.14 4.99,-2.89 10.67,-4.44 16.59,-4.44 1.42,0 2.82,0.09 4.2,0.27 0.46,0.06 0.91,0.13 1.36,0.2 1.79,0.3 3.55,0.75 5.27,1.33 0.18,0.06 0.35,0.13 0.53,0.19 0.19,0.06 0.36,0.13 0.54,0.2 0.07,0.02 0.13,0.05 0.2,0.08 h 0.01 c 0.34,0.14 0.69,0.27 1.03,0.42 0.07,0.04 0.14,0.06 0.21,0.09 h 0.01 c 0.41,0.19 0.82,0.37 1.22,0.57 h 0.01 c 0.26,0.13 0.52,0.26 0.78,0.41 0.14,0.06 0.27,0.13 0.41,0.21 h 0.01 c 0.3,0.16 0.61,0.34 0.91,0.53 0.08,0.04 0.16,0.09 0.26,0.15 0.19,0.11 0.37,0.22 0.57,0.35 0.19,0.11 0.39,0.23 0.57,0.36 h 0.01 c 0.37,0.25 0.75,0.5 1.11,0.77 h 0.01 c 0.36,0.26 0.73,0.53 1.09,0.82 h 0.01 c 0.25,0.19 0.5,0.4 0.75,0.61 0.11,0.08 0.2,0.16 0.3,0.26 0.35,0.29 0.69,0.6 1.04,0.91 0.26,0.23 0.52,0.47 0.76,0.73 0.08,0.07 0.15,0.15 0.23,0.23 h 0.01 c 0.23,0.23 0.46,0.47 0.67,0.7 0.12,0.11 0.22,0.21 0.32,0.33 0.04,0.04 0.07,0.07 0.09,0.12 0.09,0.09 0.18,0.18 0.25,0.27 0.2,0.2 0.37,0.41 0.55,0.62 0.01,0.01 0.02,0.02 0.04,0.05 h 0.01 c 0,0 0.02,0.02 0.02,0.04 0.12,0.14 0.22,0.27 0.33,0.41 0.02,0.01 0.04,0.02 0.05,0.05 0.12,0.14 0.25,0.29 0.36,0.44 0.02,0.02 0.05,0.06 0.07,0.09 0.01,0.02 0.02,0.05 0.04,0.06 h 0.01 c 0.13,0.16 0.26,0.33 0.36,0.49 0.16,0.21 0.32,0.42 0.46,0.63 0.01,0.01 0.02,0.02 0.02,0.04 0.04,0.04 0.06,0.07 0.08,0.11 0.2,0.28 0.37,0.55 0.56,0.82 0.04,0.06 0.07,0.12 0.11,0.18 h 0.01 c 0.07,0.11 0.14,0.22 0.2,0.33 0.02,0.05 0.06,0.08 0.08,0.13 0.02,0.05 0.06,0.08 0.08,0.13 0.08,0.12 0.15,0.25 0.22,0.37 0.04,0.05 0.06,0.09 0.08,0.14 0.01,0.02 0.02,0.05 0.04,0.07 h 0.01 c 0,0 0.05,0.06 0.05,0.09 h 0.01 c 0,0 0.05,0.08 0.07,0.13 0.12,0.19 0.22,0.39 0.33,0.59 0.05,0.08 0.09,0.15 0.13,0.23 0.02,0.04 0.05,0.07 0.05,0.11 0.12,0.2 0.23,0.4 0.32,0.61 0.02,0.02 0.02,0.04 0.04,0.06 0.01,0.01 0.01,0.04 0.02,0.05 0,0 0.01,0 0.01,0.01 0.01,0.01 0.02,0.04 0.04,0.06 0.07,0.13 0.13,0.27 0.19,0.41 0.07,0.12 0.13,0.25 0.19,0.37 0.14,0.28 0.27,0.56 0.39,0.84 0.01,0.02 0.02,0.05 0.02,0.07 h 0.01 c 0.08,0.2 0.18,0.39 0.25,0.6 0.01,0.01 0.01,0.02 0.01,0.05 0.02,0.05 0.05,0.09 0.06,0.14 0.04,0.08 0.07,0.16 0.09,0.25 0.01,0.01 0.02,0.04 0.02,0.06 0.08,0.18 0.15,0.36 0.22,0.55 0.11,0.29 0.21,0.59 0.3,0.88 q 0,0 0,0.01 c 0.12,0.32 0.22,0.63 0.3,0.95 0.04,0.11 0.07,0.21 0.09,0.33 0.07,0.21 0.13,0.42 0.19,0.63 0.06,0.22 0.12,0.43 0.16,0.66 0.04,0.11 0.06,0.21 0.08,0.32 0.08,0.33 0.16,0.66 0.22,0.97 v 0 c 0.19,0.88 0.34,1.76 0.44,2.63 l 10.71,-10.71 c -1.01,-2.93 -2.29,-5.77 -3.91,-8.5 -0.77,-1.3 -1.62,-2.59 -2.53,-3.83 -0.46,-0.62 -0.92,-1.23 -1.42,-1.84 -0.98,-1.21 -2.04,-2.36 -3.16,-3.49 -1.12,-1.12 -2.29,-2.18 -3.5,-3.16 -1.21,-1 -2.45,-1.91 -3.72,-2.75 -1.29,-0.84 -2.59,-1.62 -3.93,-2.32 -2.11,-1.1 -4.28,-2.03 -6.51,-2.79 -1.3,-0.44 -2.61,-0.83 -3.95,-1.16 -0.71,-0.18 -1.44,-0.34 -2.17,-0.48 -2.9,-0.56 -5.84,-0.84 -8.79,-0.84 -0.28,0 -0.56,0.02 -0.85,0.02 -4.87,0.09 -9.73,0.94 -14.39,2.56 -1.4,0.49 -2.79,1.05 -4.16,1.69 -1.36,0.63 -2.7,1.33 -4,2.11 -0.87,0.5 -1.7,1.05 -2.53,1.63 -1.71,1.16 -3.35,2.44 -4.92,3.85 -0.59,0.53 -1.16,1.08 -1.72,1.64 l -12.53,12.52 -25.92,25.92 c -0.56,0.56 -1.1,1.14 -1.63,1.72 -1.58,1.76 -3.01,3.59 -4.27,5.51 -2.95,4.46 -5.05,9.33 -6.28,14.38 -0.35,1.44 -0.63,2.89 -0.84,4.36 -0.21,1.45 -0.35,2.93 -0.42,4.4 -0.07,1.46 -0.07,2.94 0,4.41 0.07,1.47 0.21,2.94 0.42,4.4 0.21,1.46 0.49,2.92 0.84,4.36 1.23,5.03 3.33,9.9 6.28,14.38 1.26,1.92 2.69,3.76 4.27,5.5 0.53,0.59 1.07,1.16 1.63,1.72 4.5,4.5 9.69,7.87 15.23,10.12 5.55,2.26 11.44,3.38 17.34,3.38 0.74,0 1.48,-0.02 2.21,-0.06 5.89,-0.28 11.73,-1.69 17.19,-4.21 2.04,-0.95 4.03,-2.06 5.95,-3.33 1.28,-0.84 2.52,-1.76 3.72,-2.74 1.21,-0.98 2.38,-2.04 3.5,-3.16 l 25.92,-25.92 c -2.6,0.35 -5.25,0.55 -7.91,0.55 -3.4,0 -6.73,-0.3 -10,-0.88 z"
       id="path5"
       style="stroke-width:0.49965" />
  </g>
</svg>
